<?xml version="1.0" standalone="no"?>
<!DOCTYPE svg PUBLIC "-//W3C//DTD SVG 20010904//EN"
 "http://www.w3.org/TR/2001/REC-SVG-20010904/DTD/svg10.dtd">
<svg version="1.0" xmlns="http://www.w3.org/2000/svg"
 width="1024.000000pt" height="1024.000000pt" viewBox="0 0 1024.000000 1024.000000"
 preserveAspectRatio="xMidYMid meet">
<metadata>
Created by potrace 1.11, written by Peter Selinger 2001-2013
</metadata>
<g transform="translate(0.000000,1024.000000) scale(0.100000,-0.100000)"
fill="#000000" stroke="none">
<path d="M2010 10234 c-14 -2 -59 -9 -100 -15 -406 -60 -767 -217 -1087 -472
-111 -88 -267 -246 -350 -357 -40 -52 -76 -99 -80 -105 -35 -43 -121 -192
-171 -295 -93 -192 -169 -433 -196 -625 -3 -22 -10 -69 -15 -105 -11 -75 -9
-6251 2 -6315 40 -236 82 -391 147 -555 241 -604 745 -1076 1366 -1279 82 -27
185 -56 229 -65 229 -46 95 -45 3410 -42 2827 2 3127 3 3195 18 41 9 90 19
109 23 77 14 231 59 330 96 426 160 772 429 1047 814 147 206 269 476 329 730
28 119 34 148 53 280 9 66 9 6211 0 6295 -7 58 -12 92 -34 220 -3 19 -21 87
-39 150 -121 422 -347 777 -674 1061 -303 263 -652 435 -1031 509 -52 10 -113
22 -135 26 -39 8 -6255 15 -6305 8z"/>
</g>
</svg>
